<svg width="11" height="11" viewBox="0 0 11 11" fill="none" xmlns="http://www.w3.org/2000/svg">
<path fill-rule="evenodd" clip-rule="evenodd" d="M0.879668 0.0374561C0.473934 0.170074 0.224234 0.382778 0.0851396 0.714405C0.0105598 0.892051 0 1.48979 0 5.52262C0 9.94672 0.00412483 10.1359 0.10494 10.3312C0.323839 10.7549 0.724898 11 1.1996 11C1.58763 11 1.90035 10.8166 2.19999 10.4132C2.5884 9.89047 4.42012 7.1641 4.49316 7.00004C4.54667 6.87997 4.54354 6.83072 4.47633 6.73513C4.35709 6.56565 4.18455 6.59386 3.92429 6.82552C3.04886 7.60468 1.81428 8.64454 1.76467 8.64454C1.68641 8.64454 1.67981 2.47657 1.75802 2.42842C1.80201 2.40136 3.35598 4.21868 5.52748 6.83664C5.76948 7.12839 6.21498 7.65793 6.51748 8.01344C6.81998 8.36889 7.12935 8.73744 7.20498 8.83237C7.54999 9.2655 8.69086 10.6014 8.80828 10.7098C9.0175 10.9029 9.31829 11 9.70747 11C10.2766 11 10.6616 10.7832 10.895 10.3312C10.9958 10.1359 11 9.94672 11 5.52262C11 0.539388 11.0093 0.703176 10.7086 0.382121C10.2668 -0.0896294 9.45326 -0.108309 9.00017 0.342954C8.92631 0.416521 8.5874 0.8909 8.24706 1.39716C7.90672 1.90342 7.37212 2.69162 7.05912 3.14869C6.50335 3.96023 6.41436 4.16505 6.55598 4.3061C6.71075 4.46025 6.82708 4.40164 7.45248 3.85468C8.40953 3.01772 9.21055 2.34504 9.2502 2.34504C9.27484 2.34504 9.29497 3.75191 9.29497 5.4714C9.29497 8.09719 9.28287 8.59496 9.21929 8.58006C9.17766 8.57031 8.50534 7.79821 7.72528 6.86424C6.94516 5.93028 6.23055 5.07809 6.13721 4.97051C6.04388 4.86292 5.91798 4.71502 5.85748 4.64184C3.58874 1.89729 2.1841 0.273769 1.97955 0.159721C1.72634 0.0185578 1.13778 -0.0468475 0.879668 0.0374561Z" fill="black"/>
</svg>
